<?xml version="1.0" standalone="no"?>
<!DOCTYPE svg PUBLIC "-//W3C//DTD SVG 1.1//EN" "http://www.w3.org/Graphics/SVG/1.1/DTD/svg11.dtd" >
<svg xmlns="http://www.w3.org/2000/svg" xmlns:xlink="http://www.w3.org/1999/xlink" version="1.1">
<metadata></metadata>
<defs>
<font id="madeon_runes_lightregular" horiz-adv-x="1199" >
<font-face units-per-em="2048" ascent="1638" descent="-410" />
<missing-glyph horiz-adv-x="508" />
<glyph unicode="&#xd;" horiz-adv-x="508" />
<glyph horiz-adv-x="0" />
<glyph horiz-adv-x="0" />
<glyph unicode=" "  horiz-adv-x="508" />
<glyph unicode="&#x09;" horiz-adv-x="508" />
<glyph unicode="&#xa0;" horiz-adv-x="508" />
<glyph unicode="0" d="M6 718q0 15 9 24t24 9t25 -9q8 -9 8 -24q0 -14 -9 -24q-10 -9 -24 -9t-23 9q-10 10 -10 24zM21 718q0 -8 5 -13q13 -13 26 0q5 5 5 13q0 9 -4 13q-5 5 -14 5q-8 0 -14 -5q-4 -4 -4 -13z" />
<glyph unicode="1" d="M6 717q0 12 7 18q7 7 19 7t19 -7q6 -6 6 -18q0 -11 -7 -18q-7 -8 -18 -8t-18 8q-8 7 -8 18z" />
<glyph unicode="2" d="M6 31q0 11 7 18t19 7t19 -7q6 -7 6 -18t-7 -19q-7 -7 -18 -7t-18 7q-8 8 -8 19zM6 712q0 12 7 18q7 8 19 8t19 -8q6 -6 6 -18q0 -11 -7 -18t-18 -7t-18 7q-8 7 -8 18z" />
<glyph unicode="3" d="M6 1402q0 12 7 18q7 7 19 7t19 -7q6 -6 6 -18q0 -11 -7 -18q-7 -8 -18 -8t-18 8q-8 7 -8 18zM405 32q0 12 6 18q8 7 20 7q11 0 19 -7q6 -6 6 -18q0 -11 -7 -18q-7 -8 -18 -8t-19 8q-7 7 -7 18zM806 718q0 12 6 18q8 8 19 8q12 0 19 -8q7 -6 7 -18q0 -11 -7 -18 q-8 -7 -19 -7t-18 7t-7 18z" />
<glyph unicode="4" d="M6 32q0 12 6 18q8 7 20 7q11 0 19 -7q6 -6 6 -18q0 -11 -7 -18q-7 -8 -18 -8t-19 8q-7 7 -7 18zM405 719q0 11 6 18q8 7 20 7q11 0 19 -7q6 -7 6 -18t-7 -19q-8 -7 -18 -7q-11 0 -19 7q-7 8 -7 19zM405 1402q0 12 6 18q8 7 20 7q11 0 19 -7q6 -6 6 -18q0 -11 -7 -18 q-8 -8 -18 -8q-11 0 -19 8q-7 7 -7 18zM804 32q0 12 7 18q7 7 19 7t19 -7q6 -6 6 -18q0 -11 -7 -18q-7 -8 -18 -8t-18 8q-8 7 -8 18z" />
<glyph unicode="5" d="M6 1402q0 12 7 18q7 7 19 7t19 -7q6 -6 6 -18q0 -11 -7 -18q-7 -8 -18 -8t-18 8q-8 7 -8 18zM408 31q0 11 6 18q7 7 19 7t19 -7t7 -18t-8 -19q-7 -7 -18 -7t-18 7q-7 8 -7 19zM408 712q0 12 6 18q7 7 19 7t19 -7q7 -6 7 -18q0 -11 -8 -18q-7 -8 -18 -8t-18 8q-7 7 -7 18z M408 1402q0 12 6 18q7 7 19 7t19 -7q7 -6 7 -18q0 -11 -8 -18q-7 -8 -18 -8t-18 8q-7 7 -7 18zM806 31q0 11 6 18q8 7 19 7q12 0 19 -7t7 -18t-7 -19q-8 -7 -19 -7t-18 7q-7 8 -7 19zM807 1402q0 12 6 18q8 7 20 7q11 0 19 -7q6 -6 6 -18q0 -11 -7 -18q-7 -8 -18 -8t-19 8 q-7 7 -7 18z" />
<glyph unicode="6" d="M6 1402q0 12 7 18q7 7 19 7t19 -7q6 -6 6 -18q0 -11 -7 -18q-7 -8 -18 -8t-18 8q-8 7 -8 18zM408 31q0 11 6 18q7 7 19 7t19 -7t7 -18t-8 -19q-7 -7 -18 -7t-18 7q-7 8 -7 19zM408 712q0 12 6 18q7 7 19 7t19 -7q7 -6 7 -18q0 -11 -8 -18q-7 -8 -18 -8t-18 8q-7 7 -7 18z M408 1402q0 12 6 18q7 7 19 7t19 -7q7 -6 7 -18q0 -11 -8 -18q-7 -8 -18 -8t-18 8q-7 7 -7 18zM806 31q0 11 6 18q8 7 19 7q12 0 19 -7t7 -18t-7 -19q-8 -7 -19 -7t-18 7q-7 8 -7 19zM807 1402q0 12 6 18q8 7 20 7q11 0 19 -7q6 -6 6 -18q0 -11 -7 -18q-7 -8 -18 -8t-19 8 q-7 7 -7 18z" />
<glyph unicode="7" d="M6 32q0 12 7 18q7 7 19 7t19 -7q6 -6 6 -18q0 -11 -7 -18q-7 -8 -18 -8t-18 8q-8 7 -8 18zM6 718q0 12 7 18q7 8 19 8t19 -8q6 -6 6 -18q0 -11 -7 -18t-18 -7t-18 7q-8 7 -8 18zM7 1403q0 11 6 18q8 7 20 7q11 0 19 -7q6 -7 6 -18t-7 -19q-8 -7 -18 -7q-11 0 -19 7 q-7 8 -7 19zM406 32q0 12 7 18q7 7 19 7t19 -7q6 -6 6 -18q0 -11 -7 -18q-7 -8 -18 -8t-18 8q-8 7 -8 18zM406 1402q0 12 7 18q7 7 19 7t19 -7q6 -6 6 -18q0 -11 -7 -18q-7 -8 -18 -8t-18 8q-8 7 -8 18zM806 32q0 12 6 18q8 7 19 7q12 0 19 -7q7 -6 7 -18q0 -11 -7 -18 q-8 -8 -19 -8t-18 8q-7 7 -7 18zM806 1402q0 12 6 18q8 7 19 7q12 0 19 -7q7 -6 7 -18q0 -11 -7 -18q-8 -8 -19 -8t-18 8q-7 7 -7 18z" />
<glyph unicode="8" d="M6 717q0 12 7 18q7 7 19 7t19 -7q6 -6 6 -18q0 -11 -7 -18q-7 -8 -18 -8t-18 8q-8 7 -8 18zM6 1402q0 12 7 18q7 7 19 7t19 -7q6 -6 6 -18q0 -11 -7 -18q-7 -8 -18 -8t-18 8q-8 7 -8 18zM406 31q0 11 7 18t19 7t19 -7q6 -7 6 -18t-7 -19q-7 -7 -18 -7t-18 7q-8 8 -8 19z M406 717q0 12 7 18q7 7 19 7t19 -7q6 -6 6 -18q0 -11 -7 -18q-7 -8 -18 -8t-18 8q-8 7 -8 18zM406 1402q0 12 7 18q7 7 19 7t19 -7q6 -6 6 -18q0 -11 -7 -18q-7 -8 -18 -8t-18 8q-8 7 -8 18zM806 32q0 12 6 18q8 7 19 7q12 0 19 -7q7 -6 7 -18q0 -11 -7 -18q-8 -8 -19 -8 t-18 8q-7 7 -7 18zM806 717q0 12 6 18q8 7 19 7q12 0 19 -7q7 -6 7 -18q0 -11 -7 -18q-8 -8 -19 -8t-18 8q-7 7 -7 18zM806 1402q0 12 6 18q8 7 19 7q12 0 19 -7q7 -6 7 -18q0 -11 -7 -18q-8 -8 -19 -8t-18 8q-7 7 -7 18z" />
<glyph unicode="9" d="M6 32q0 12 7 18q7 7 19 7t19 -7q6 -6 6 -18q0 -11 -7 -18q-7 -8 -18 -8t-18 8q-8 7 -8 18zM6 719q0 12 7 18q7 7 19 7t19 -7q6 -6 6 -18q0 -11 -7 -18q-7 -8 -18 -8t-18 8q-8 7 -8 18zM6 1402q0 12 7 19t19 7t19 -7q6 -7 6 -19q0 -11 -7 -18t-18 -7t-18 7q-8 7 -8 18z M406 32q0 12 7 18q7 7 19 7t19 -7q6 -6 6 -18q0 -11 -7 -18q-7 -8 -18 -8t-18 8q-8 7 -8 18zM406 719q0 12 7 18q7 7 19 7t19 -7q6 -6 6 -18q0 -11 -7 -18q-7 -8 -18 -8t-18 8q-8 7 -8 18zM406 1402q0 12 7 19t19 7t19 -7q6 -7 6 -19q0 -11 -7 -18t-18 -7t-18 7q-8 7 -8 18z M806 32q0 12 6 18q7 7 19 7t19 -7q7 -6 7 -18q0 -11 -8 -18q-7 -8 -18 -8t-18 8q-7 7 -7 18zM806 719q0 12 6 18q7 7 19 7t19 -7q7 -6 7 -18q0 -11 -8 -18q-7 -8 -18 -8t-18 8q-7 7 -7 18zM806 1402q0 12 6 19q7 7 19 7t19 -7t7 -19q0 -11 -8 -18q-7 -7 -18 -7t-18 7t-7 18z " />
<glyph unicode="A" d="M0 0h863v13h-845l845 1413v8h-10l-853 -1427v-7z" />
<glyph unicode="B" d="M0 0h10l425 710h428v13h-420l420 703v8h-863v-1434zM13 28v682h408zM13 723v698h832l-417 -698h-415z" />
<glyph unicode="C" d="M0 1426l853 -1426h10v7l-845 1414h845v13h-863v-8z" />
<glyph unicode="D" d="M0 0h10l422 705l421 -705h10v7l-424 710l424 709v8h-863v-1434zM13 28v1378l411 -689zM18 1421h827l-413 -692z" />
<glyph unicode="E" d="M0 0h864v13h-864v-13zM0 711h864v13h-864v-13zM0 1422h864v13h-864v-13z" />
<glyph unicode="F" d="M0 711h428l424 -711h11v7l-421 704h421v12h-428l-425 711h-10v-7l420 -704h-420v-12z" />
<glyph unicode="G" d="M0 0h10l853 1427v7h-863v-1434zM13 28v1394h832z" />
<glyph unicode="H" d="M0 0h13v1434h-13v-1434zM425 0h13v1434h-13v-1434zM850 0h13v1434h-13v-1434z" />
<glyph unicode="I" d="M0 0h10l853 1426v8h-10l-853 -1427v-7z" />
<glyph unicode="J" d="M0 0h863v1434h-10l-853 -1427v-7zM18 13l833 1393v-1393h-833z" />
<glyph unicode="K" d="M0 0h10l422 705l421 -705h10v7l-420 703h420v13h-420l420 703v8h-10l-421 -705l-422 705h-10v-1434zM13 28v682h408zM13 723v683l408 -683h-408z" />
<glyph unicode="L" d="M0 0h863v7l-421 703h421v12h-428l-425 710h-10v-7l420 -703h-420v-12h428l417 -698h-845v-12z" />
<glyph unicode="M" d="M0 0h10l422 705l421 -705h10v1434h-10l-421 -705l-422 705h-10v-8l424 -709l-424 -710v-7zM439 717l412 689v-1378z" />
<glyph unicode="N" d="M0 0h10l421 705l422 -705h10v7l-424 710l424 710v7h-10l-422 -705l-421 705h-10v-1434zM12 28v1376l412 -688z" />
<glyph unicode="O" d="M0 0h863v7l-853 1427h-10v-7l845 -1414h-845v-13z" />
<glyph unicode="P" d="M0 0h863v7l-425 711v703h425v13h-863v-8l425 -711v-702h-425v-13zM18 1419h407v-681zM437 12v681l407 -681h-407z" />
<glyph unicode="Q" d="M0 0h10l415 694v-694h13v715l425 711v8h-863v-13h425v-703l-425 -711v-7zM438 739v682h407z" />
<glyph unicode="R" d="M0 0h10l422 705l421 -705h10v7l-420 703h420v13h-420l420 703v8h-863v-8l421 -703h-421v-13h421l-421 -703v-7zM18 1421h827l-413 -692z" />
<glyph unicode="S" d="M0 0h10l421 705l422 -705h10v7l-421 703h421v13h-421l421 703v8h-10l-422 -705l-421 705h-10v-8l420 -703h-420v-13h420l-420 -703v-7z" />
<glyph unicode="T" d="M0 710h425v-710h13v710h425v13h-425v711h-13v-711h-425v-13z" />
<glyph unicode="U" d="M0 0h10l853 1426v8h-10l-840 -1406v1406h-13v-1434z" />
<glyph unicode="V" d="M0 0h10l425 710h428v13h-421l421 703v8h-10l-425 -711h-415v711h-13v-1434zM13 28v682h407z" />
<glyph unicode="W" d="M0 710h428l425 -710h10v1434h-13v-711h-415l-425 711h-10v-8l420 -703h-420v-13zM442 710h408v-682z" />
<glyph unicode="X" d="M0 0h10l415 694v-694h13v694l415 -694h10v7l-421 703h421v13h-421l421 703v8h-10l-415 -695v695h-13v-695l-415 695h-10v-8l420 -703h-420v-13h420l-420 -703v-7z" />
<glyph unicode="Y" d="M0 0h863v7l-421 703h421v13h-421l421 703v8h-10l-422 -705l-421 705h-10v-8l420 -703h-420v-13h420l-420 -703v-7zM18 13l413 692l414 -692h-827z" />
<glyph unicode="Z" d="M0 0h863v13h-425v702l425 711v8h-10l-415 -695v695h-13v-716l-425 -711v-7zM18 13l407 681v-681h-407z" />
<glyph unicode="a" d="M0 0h863v13h-845l845 1413v8h-10l-853 -1427v-7z" />
<glyph unicode="b" d="M0 0h10l425 710h428v13h-420l420 703v8h-863v-1434zM13 28v682h408zM13 723v698h832l-417 -698h-415z" />
<glyph unicode="c" d="M0 1426l853 -1426h10v7l-845 1414h845v13h-863v-8z" />
<glyph unicode="d" d="M0 0h10l422 705l421 -705h10v7l-424 710l424 709v8h-863v-1434zM13 28v1378l411 -689zM18 1421h827l-413 -692z" />
<glyph unicode="e" d="M0 0h864v13h-864v-13zM0 711h864v13h-864v-13zM0 1422h864v13h-864v-13z" />
<glyph unicode="f" d="M0 711h428l424 -711h11v7l-421 704h421v12h-428l-425 711h-10v-7l420 -704h-420v-12z" />
<glyph unicode="g" d="M0 0h10l853 1427v7h-863v-1434zM13 28v1394h832z" />
<glyph unicode="h" d="M0 0h13v1434h-13v-1434zM425 0h13v1434h-13v-1434zM850 0h13v1434h-13v-1434z" />
<glyph unicode="i" d="M0 0h10l853 1426v8h-10l-853 -1427v-7z" />
<glyph unicode="j" d="M0 0h863v1434h-10l-853 -1427v-7zM18 13l833 1393v-1393h-833z" />
<glyph unicode="k" d="M0 0h10l422 705l421 -705h10v7l-420 703h420v13h-420l420 703v8h-10l-421 -705l-422 705h-10v-1434zM13 28v682h408zM13 723v683l408 -683h-408z" />
<glyph unicode="l" d="M0 0h863v7l-421 703h421v12h-428l-425 710h-10v-7l420 -703h-420v-12h428l417 -698h-845v-12z" />
<glyph unicode="m" d="M0 0h10l422 705l421 -705h10v1434h-10l-421 -705l-422 705h-10v-8l424 -709l-424 -710v-7zM439 717l412 689v-1378z" />
<glyph unicode="n" d="M0 0h10l421 705l422 -705h10v7l-424 710l424 710v7h-10l-422 -705l-421 705h-10v-1434zM12 28v1376l412 -688z" />
<glyph unicode="o" d="M0 0h863v7l-853 1427h-10v-7l845 -1414h-845v-13z" />
<glyph unicode="p" d="M0 0h863v7l-425 711v703h425v13h-863v-8l425 -711v-702h-425v-13zM18 1419h407v-681zM437 12v681l407 -681h-407z" />
<glyph unicode="q" d="M0 0h10l415 694v-694h13v715l425 711v8h-863v-13h425v-703l-425 -711v-7zM438 739v682h407z" />
<glyph unicode="r" d="M0 0h10l422 705l421 -705h10v7l-420 703h420v13h-420l420 703v8h-863v-8l421 -703h-421v-13h421l-421 -703v-7zM18 1421h827l-413 -692z" />
<glyph unicode="s" d="M0 0h10l421 705l422 -705h10v7l-421 703h421v13h-421l421 703v8h-10l-422 -705l-421 705h-10v-8l420 -703h-420v-13h420l-420 -703v-7z" />
<glyph unicode="t" d="M0 710h425v-710h13v710h425v13h-425v711h-13v-711h-425v-13z" />
<glyph unicode="u" d="M0 0h10l853 1426v8h-10l-840 -1406v1406h-13v-1434z" />
<glyph unicode="v" d="M0 0h10l425 710h428v13h-421l421 703v8h-10l-425 -711h-415v711h-13v-1434zM13 28v682h407z" />
<glyph unicode="w" d="M0 710h428l425 -710h10v1434h-13v-711h-415l-425 711h-10v-8l420 -703h-420v-13zM442 710h408v-682z" />
<glyph unicode="x" d="M0 0h10l415 694v-694h13v694l415 -694h10v7l-421 703h421v13h-421l421 703v8h-10l-415 -695v695h-13v-695l-415 695h-10v-8l420 -703h-420v-13h420l-420 -703v-7z" />
<glyph unicode="y" d="M0 0h863v7l-421 703h421v13h-421l421 703v8h-10l-422 -705l-421 705h-10v-8l420 -703h-420v-13h420l-420 -703v-7zM18 13l413 692l414 -692h-827z" />
<glyph unicode="z" d="M0 0h863v13h-425v702l425 711v8h-10l-415 -695v695h-13v-716l-425 -711v-7zM18 13l407 681v-681h-407z" />
<glyph unicode="&#x2000;" horiz-adv-x="717" />
<glyph unicode="&#x2001;" horiz-adv-x="1435" />
<glyph unicode="&#x2002;" horiz-adv-x="717" />
<glyph unicode="&#x2003;" horiz-adv-x="1435" />
<glyph unicode="&#x2004;" horiz-adv-x="478" />
<glyph unicode="&#x2005;" horiz-adv-x="358" />
<glyph unicode="&#x2006;" horiz-adv-x="239" />
<glyph unicode="&#x2007;" horiz-adv-x="239" />
<glyph unicode="&#x2008;" horiz-adv-x="179" />
<glyph unicode="&#x2009;" horiz-adv-x="287" />
<glyph unicode="&#x200a;" horiz-adv-x="79" />
<glyph unicode="&#x202f;" horiz-adv-x="287" />
<glyph unicode="&#x205f;" horiz-adv-x="358" />
<glyph unicode="&#x25fc;" horiz-adv-x="1435" d="M0 0v1435h1435v-1435h-1435z" />
</font>
</defs>
</svg>
