<?xml version="1.0" standalone="no"?>
<!DOCTYPE svg PUBLIC "-//W3C//DTD SVG 1.1//EN" "http://www.w3.org/Graphics/SVG/1.1/DTD/svg11.dtd" >
<svg xmlns="http://www.w3.org/2000/svg" xmlns:xlink="http://www.w3.org/1999/xlink" version="1.1">
<metadata></metadata>
<defs>
<font id="madeon_runes_boldbold" horiz-adv-x="1199" >
<font-face units-per-em="2048" ascent="1638" descent="-410" />
<missing-glyph horiz-adv-x="508" />
<glyph unicode="&#xd;" horiz-adv-x="508" />
<glyph horiz-adv-x="0" />
<glyph horiz-adv-x="0" />
<glyph unicode=" "  horiz-adv-x="508" />
<glyph unicode="&#x09;" horiz-adv-x="508" />
<glyph unicode="&#xa0;" horiz-adv-x="508" />
<glyph unicode="0" d="M-1 704q0 63 45 108q45 46 109 46q63 0 109 -46q45 -45 45 -108q0 -64 -45 -109q-46 -45 -109 -45q-64 0 -109 45t-45 109zM100 704q0 -53 53 -53q52 0 52 53q0 52 -52 52q-53 0 -53 -52z" />
<glyph unicode="1" d="M0 717q0 51 37 88q36 37 88 37t89 -37q36 -37 36 -88q0 -52 -36 -89q-37 -37 -89 -37t-88 37q-37 37 -37 89z" />
<glyph unicode="2" d="M0 125q0 52 37 89q36 36 88 36t89 -36q36 -37 36 -89t-36 -88q-37 -37 -89 -37t-88 37q-37 36 -37 88zM0 717q0 51 37 88q36 37 88 37t89 -37q36 -37 36 -88q0 -52 -36 -89q-37 -37 -89 -37t-88 37q-37 37 -37 89z" />
<glyph unicode="3" d="M0 1308q0 52 37 88q36 37 88 37t89 -37q36 -36 36 -88t-36 -89q-37 -36 -89 -36t-88 36q-37 37 -37 89zM304 125q0 52 36 89q37 36 89 36t88 -36q37 -37 37 -89t-37 -88q-36 -37 -88 -37t-89 37q-36 36 -36 88zM607 716q0 52 37 88q37 37 89 37q51 0 88 -37 q37 -36 37 -88t-37 -89q-37 -36 -88 -36q-52 0 -89 36q-37 37 -37 89z" />
<glyph unicode="4" d="M0 125q0 52 37 89q36 36 88 36t89 -36q36 -37 36 -89t-36 -88q-37 -37 -89 -37t-88 37q-37 36 -37 88zM305 717q0 51 37 88q36 37 88 37t89 -37q36 -37 36 -88q0 -52 -36 -89q-37 -37 -89 -37t-88 37q-37 37 -37 89zM305 1308q0 52 37 88q36 37 88 37t89 -37 q36 -36 36 -88t-36 -89q-37 -36 -89 -36t-88 36q-37 37 -37 89zM607 125q0 52 37 89q37 36 89 36q51 0 88 -36q37 -37 37 -89t-37 -88q-37 -37 -88 -37q-52 0 -89 37q-37 36 -37 88z" />
<glyph unicode="5" d="M0 125q0 52 37 89q36 36 88 36t89 -36q36 -37 36 -89t-36 -88q-37 -37 -89 -37t-88 37q-37 36 -37 88zM0 1308q0 52 37 88q36 37 88 37t89 -37q36 -36 36 -88t-36 -89q-37 -36 -89 -36t-88 36q-37 37 -37 89zM305 717q0 51 37 88q36 37 88 37t89 -37q36 -37 36 -88 q0 -52 -36 -89q-37 -37 -89 -37t-88 37q-37 37 -37 89zM607 716q0 52 37 88q37 37 89 37q51 0 88 -37q37 -36 37 -88t-37 -89q-37 -36 -88 -36q-52 0 -89 36q-37 37 -37 89zM607 1308q0 52 37 88q37 37 89 37q51 0 88 -37q37 -36 37 -88t-37 -89q-37 -36 -88 -36 q-52 0 -89 36q-37 37 -37 89z" />
<glyph unicode="6" d="M0 1308q0 52 37 88q36 37 88 37t89 -37q36 -36 36 -88t-36 -89q-37 -36 -89 -36t-88 36q-37 37 -37 89zM304 125q0 52 36 89q37 36 89 36t88 -36q37 -37 37 -89t-37 -88q-36 -37 -88 -37t-89 37q-36 36 -36 88zM305 717q0 51 37 88q36 37 88 37t89 -37q36 -37 36 -88 q0 -52 -36 -89q-37 -37 -89 -37t-88 37q-37 37 -37 89zM305 1308q0 52 37 88q36 37 88 37t89 -37q36 -36 36 -88t-36 -89q-37 -36 -89 -36t-88 36q-37 37 -37 89zM607 125q0 52 37 89q37 36 89 36q51 0 88 -36q37 -37 37 -89t-37 -88q-37 -37 -88 -37q-52 0 -89 37 q-37 36 -37 88zM607 1308q0 52 37 88q37 37 89 37q51 0 88 -37q37 -36 37 -88t-37 -89q-37 -36 -88 -36q-52 0 -89 36q-37 37 -37 89z" />
<glyph unicode="7" d="M0 125q0 52 37 89q36 36 88 36t89 -36q36 -37 36 -89t-36 -88q-37 -37 -89 -37t-88 37q-37 36 -37 88zM0 717q0 51 37 88q36 37 88 37t89 -37q36 -37 36 -88q0 -52 -36 -89q-37 -37 -89 -37t-88 37q-37 37 -37 89zM0 1308q0 52 37 88q36 37 88 37t89 -37q36 -36 36 -88 t-36 -89q-37 -36 -89 -36t-88 36q-37 37 -37 89zM304 125q0 52 36 89q37 36 89 36t88 -36q37 -37 37 -89t-37 -88q-36 -37 -88 -37t-89 37q-36 36 -36 88zM305 1308q0 52 37 88q36 37 88 37t89 -37q36 -36 36 -88t-36 -89q-37 -36 -89 -36t-88 36q-37 37 -37 89zM607 125 q0 52 37 89q37 36 89 36q51 0 88 -36q37 -37 37 -89t-37 -88q-37 -37 -88 -37q-52 0 -89 37q-37 36 -37 88zM607 1308q0 52 37 88q37 37 89 37q51 0 88 -37q37 -36 37 -88t-37 -89q-37 -36 -88 -36q-52 0 -89 36q-37 37 -37 89z" />
<glyph unicode="8" d="M0 717q0 51 37 88q36 37 88 37t89 -37q36 -37 36 -88q0 -52 -36 -89q-37 -37 -89 -37t-88 37q-37 37 -37 89zM0 1308q0 52 37 88q36 37 88 37t89 -37q36 -36 36 -88t-36 -89q-37 -36 -89 -36t-88 36q-37 37 -37 89zM304 125q0 52 36 89q37 36 89 36t88 -36q37 -37 37 -89 t-37 -88q-36 -37 -88 -37t-89 37q-36 36 -36 88zM305 717q0 51 37 88q36 37 88 37t89 -37q36 -37 36 -88q0 -52 -36 -89q-37 -37 -89 -37t-88 37q-37 37 -37 89zM305 1308q0 52 37 88q36 37 88 37t89 -37q36 -36 36 -88t-36 -89q-37 -36 -89 -36t-88 36q-37 37 -37 89z M607 125q0 52 37 89q37 36 89 36q51 0 88 -36q37 -37 37 -89t-37 -88q-37 -37 -88 -37q-52 0 -89 37q-37 36 -37 88zM607 716q0 52 37 88q37 37 89 37q51 0 88 -37q37 -36 37 -88t-37 -89q-37 -36 -88 -36q-52 0 -89 36q-37 37 -37 89zM607 1308q0 52 37 88q37 37 89 37 q51 0 88 -37q37 -36 37 -88t-37 -89q-37 -36 -88 -36q-52 0 -89 36q-37 37 -37 89z" />
<glyph unicode="9" d="M0 125q0 52 37 89q36 36 88 36t89 -36q36 -37 36 -89t-36 -88q-37 -37 -89 -37t-88 37q-37 36 -37 88zM0 717q0 51 37 88q36 37 88 37t89 -37q36 -37 36 -88q0 -52 -36 -89q-37 -37 -89 -37t-88 37q-37 37 -37 89zM0 1308q0 52 37 88q36 37 88 37t89 -37q36 -36 36 -88 t-36 -89q-37 -36 -89 -36t-88 36q-37 37 -37 89zM304 125q0 52 36 89q37 36 89 36t88 -36q37 -37 37 -89t-37 -88q-36 -37 -88 -37t-89 37q-36 36 -36 88zM305 717q0 51 37 88q36 37 88 37t89 -37q36 -37 36 -88q0 -52 -36 -89q-37 -37 -89 -37t-88 37q-37 37 -37 89z M305 1308q0 52 37 88q36 37 88 37t89 -37q36 -36 36 -88t-36 -89q-37 -36 -89 -36t-88 36q-37 37 -37 89zM607 125q0 52 37 89q37 36 89 36q51 0 88 -36q37 -37 37 -89t-37 -88q-37 -37 -88 -37q-52 0 -89 37q-37 36 -37 88zM607 716q0 52 37 88q37 37 89 37q51 0 88 -37 q37 -36 37 -88t-37 -89q-37 -36 -88 -36q-52 0 -89 36q-37 37 -37 89zM607 1308q0 52 37 88q37 37 89 37q51 0 88 -37q37 -36 37 -88t-37 -89q-37 -36 -88 -36q-52 0 -89 36q-37 37 -37 89z" />
<glyph unicode="A" d="M0 0h915v150h-710l710 1189v93h-120l-795 -1332v-100z" />
<glyph unicode="B" d="M0 0h115l384 642h416v151h-326l326 546v93h-915v-1432zM150 351v291h174zM150 793v489h556l-292 -489h-264z" />
<glyph unicode="C" d="M0 1337l799 -1337h116v98l-707 1184h707v150h-915v-95z" />
<glyph unicode="D" d="M0 0h115l342 572l342 -572h116v98l-371 621l371 620v93h-915v-1432zM150 351v735l220 -367zM208 1282h498l-249 -417z" />
<glyph unicode="E" d="M0 0h913v150h-913v-150zM0 641h913v150h-913v-150zM0 1279h913v150h-913v-150z" />
<glyph unicode="F" d="M0 642h415l384 -642h116v98l-325 544h325v151h-415l-381 639h-119v-95l325 -544h-325v-151z" />
<glyph unicode="G" d="M0 0h115l800 1339v93h-915v-1432zM150 351v931h556z" />
<glyph unicode="H" d="M0 0h150v1432h-150v-1432zM383 0h150v1432h-150v-1432zM765 0h150v1432h-150v-1432z" />
<glyph unicode="I" d="M0 0h115l800 1339v93h-120l-793 -1329l-2 -3v-100z" />
<glyph unicode="J" d="M0 0h915v1432h-120l-793 -1329l-2 -3v-100zM205 150l560 938v-938h-560z" />
<glyph unicode="K" d="M0 0h115l342 572l342 -572h116v98l-325 544h325v151h-326l326 546v93h-120l-338 -567l-338 567h-119v-1432zM150 351v291h174zM150 793v293l175 -293h-175z" />
<glyph unicode="L" d="M0 0h915v98l-325 544h325v151h-415l-381 639h-119v-95l325 -544h-325v-151h415l294 -492h-709v-150z" />
<glyph unicode="M" d="M0 0h115l342 572l342 -572h116v1432h-120l-338 -567l-338 567h-119v-95l370 -618l-368 -616l-2 -3v-100zM544 719l221 369v-739z" />
<glyph unicode="N" d="M0 0h115l342 572l342 -572h116v98l-371 621l371 620v93h-120l-338 -567l-338 567h-119v-1432zM150 351v735l220 -367z" />
<glyph unicode="O" d="M0 0h915v98l-796 1334h-119v-95l709 -1187h-709v-150z" />
<glyph unicode="P" d="M0 0h915v98l-382 640v544h382v150h-915v-95l383 -640v-547h-383v-150zM208 1282h175v-292zM533 150v295l176 -295h-176z" />
<glyph unicode="Q" d="M0 0h115l268 448v-448h150v699l380 637l2 3v93h-915v-150h383v-542l-381 -637l-2 -3v-100zM533 992v290h173z" />
<glyph unicode="R" d="M0 0h115l342 572l342 -572h116v98l-325 544h325v151h-326l324 543l2 3v93h-915v-95l325 -544h-325v-151h324l-322 -539l-2 -3v-100zM208 1282h498l-249 -417z" />
<glyph unicode="S" d="M0 0h115l342 572l342 -572h116v98l-325 544h325v151h-326l324 543l2 3v93h-120l-338 -567l-338 567h-119v-95l325 -544h-325v-151h324l-322 -539l-2 -3v-100z" />
<glyph unicode="T" d="M0 642h383v-642h150v642h382v151h-382v639h-150v-639h-383v-151z" />
<glyph unicode="U" d="M0 0h115l798 1336l2 3v93h-120l-645 -1081v1081h-150v-1432z" />
<glyph unicode="V" d="M0 0h115l384 642h416v151h-326l324 543l2 3v93h-120l-381 -639h-264v639h-150v-1432zM150 351v291h174z" />
<glyph unicode="W" d="M0 642h415l384 -642h116v1432h-150v-639h-265l-381 639h-119v-95l325 -544h-325v-151zM590 642h175v-293z" />
<glyph unicode="X" d="M0 0h115l268 448v-448h150v445l266 -445h116v98l-325 544h325v151h-326l324 543l2 3v93h-120l-262 -440v440h-150v-442l-264 442h-119v-95l325 -544h-325v-151h324l-322 -539l-2 -3v-100z" />
<glyph unicode="Y" d="M0 0h915v98l-325 544h325v151h-326l324 543l2 3v93h-120l-338 -567l-338 567h-119v-95l325 -544h-325v-151h324l-322 -539l-2 -3v-100zM205 150l252 422l252 -422h-504z" />
<glyph unicode="Z" d="M0 0h915v150h-382v549l380 637l2 3v93h-120l-262 -440v440h-150v-692l-381 -637l-2 -3v-100zM205 150l178 298v-298h-178z" />
<glyph unicode="a" d="M0 0h915v150h-710l710 1189v93h-120l-795 -1332v-100z" />
<glyph unicode="b" d="M0 0h115l384 642h416v151h-326l326 546v93h-915v-1432zM150 351v291h174zM150 793v489h556l-292 -489h-264z" />
<glyph unicode="c" d="M0 1337l799 -1337h116v98l-707 1184h707v150h-915v-95z" />
<glyph unicode="d" d="M0 0h115l342 572l342 -572h116v98l-371 621l371 620v93h-915v-1432zM150 351v735l220 -367zM208 1282h498l-249 -417z" />
<glyph unicode="e" d="M0 0h913v150h-913v-150zM0 641h913v150h-913v-150zM0 1279h913v150h-913v-150z" />
<glyph unicode="f" d="M0 642h415l384 -642h116v98l-325 544h325v151h-415l-381 639h-119v-95l325 -544h-325v-151z" />
<glyph unicode="g" d="M0 0h115l800 1339v93h-915v-1432zM150 351v931h556z" />
<glyph unicode="h" d="M0 0h150v1432h-150v-1432zM383 0h150v1432h-150v-1432zM765 0h150v1432h-150v-1432z" />
<glyph unicode="i" d="M0 0h115l800 1339v93h-120l-793 -1329l-2 -3v-100z" />
<glyph unicode="j" d="M0 0h915v1432h-120l-793 -1329l-2 -3v-100zM205 150l560 938v-938h-560z" />
<glyph unicode="k" d="M0 0h115l342 572l342 -572h116v98l-325 544h325v151h-326l326 546v93h-120l-338 -567l-338 567h-119v-1432zM150 351v291h174zM150 793v293l175 -293h-175z" />
<glyph unicode="l" d="M0 0h915v98l-325 544h325v151h-415l-381 639h-119v-95l325 -544h-325v-151h415l294 -492h-709v-150z" />
<glyph unicode="m" d="M0 0h115l342 572l342 -572h116v1432h-120l-338 -567l-338 567h-119v-95l370 -618l-368 -616l-2 -3v-100zM544 719l221 369v-739z" />
<glyph unicode="n" d="M0 0h115l342 572l342 -572h116v98l-371 621l371 620v93h-120l-338 -567l-338 567h-119v-1432zM150 351v735l220 -367z" />
<glyph unicode="o" d="M0 0h915v98l-796 1334h-119v-95l709 -1187h-709v-150z" />
<glyph unicode="p" d="M0 0h915v98l-382 640v544h382v150h-915v-95l383 -640v-547h-383v-150zM208 1282h175v-292zM533 150v295l176 -295h-176z" />
<glyph unicode="q" d="M0 0h115l268 448v-448h150v699l380 637l2 3v93h-915v-150h383v-542l-381 -637l-2 -3v-100zM533 992v290h173z" />
<glyph unicode="r" d="M0 0h115l342 572l342 -572h116v98l-325 544h325v151h-326l324 543l2 3v93h-915v-95l325 -544h-325v-151h324l-322 -539l-2 -3v-100zM208 1282h498l-249 -417z" />
<glyph unicode="s" d="M0 0h115l342 572l342 -572h116v98l-325 544h325v151h-326l324 543l2 3v93h-120l-338 -567l-338 567h-119v-95l325 -544h-325v-151h324l-322 -539l-2 -3v-100z" />
<glyph unicode="t" d="M0 642h383v-642h150v642h382v151h-382v639h-150v-639h-383v-151z" />
<glyph unicode="u" d="M0 0h115l798 1336l2 3v93h-120l-645 -1081v1081h-150v-1432z" />
<glyph unicode="v" d="M0 0h115l384 642h416v151h-326l324 543l2 3v93h-120l-381 -639h-264v639h-150v-1432zM150 351v291h174z" />
<glyph unicode="w" d="M0 642h415l384 -642h116v1432h-150v-639h-265l-381 639h-119v-95l325 -544h-325v-151zM590 642h175v-293z" />
<glyph unicode="x" d="M0 0h115l268 448v-448h150v445l266 -445h116v98l-325 544h325v151h-326l324 543l2 3v93h-120l-262 -440v440h-150v-442l-264 442h-119v-95l325 -544h-325v-151h324l-322 -539l-2 -3v-100z" />
<glyph unicode="y" d="M0 0h915v98l-325 544h325v151h-326l324 543l2 3v93h-120l-338 -567l-338 567h-119v-95l325 -544h-325v-151h324l-322 -539l-2 -3v-100zM205 150l252 422l252 -422h-504z" />
<glyph unicode="z" d="M0 0h915v150h-382v549l380 637l2 3v93h-120l-262 -440v440h-150v-692l-381 -637l-2 -3v-100zM205 150l178 298v-298h-178z" />
<glyph unicode="&#x2000;" horiz-adv-x="716" />
<glyph unicode="&#x2001;" horiz-adv-x="1433" />
<glyph unicode="&#x2002;" horiz-adv-x="716" />
<glyph unicode="&#x2003;" horiz-adv-x="1433" />
<glyph unicode="&#x2004;" horiz-adv-x="477" />
<glyph unicode="&#x2005;" horiz-adv-x="358" />
<glyph unicode="&#x2006;" horiz-adv-x="238" />
<glyph unicode="&#x2007;" horiz-adv-x="238" />
<glyph unicode="&#x2008;" horiz-adv-x="179" />
<glyph unicode="&#x2009;" horiz-adv-x="286" />
<glyph unicode="&#x200a;" horiz-adv-x="79" />
<glyph unicode="&#x202f;" horiz-adv-x="286" />
<glyph unicode="&#x205f;" horiz-adv-x="358" />
<glyph unicode="&#x25fc;" horiz-adv-x="1430" d="M0 0v1430h1430v-1430h-1430z" />
</font>
</defs>
</svg>
