<?xml version="1.0" standalone="no"?>
<!DOCTYPE svg PUBLIC "-//W3C//DTD SVG 1.1//EN" "http://www.w3.org/Graphics/SVG/1.1/DTD/svg11.dtd" >
<svg xmlns="http://www.w3.org/2000/svg" xmlns:xlink="http://www.w3.org/1999/xlink" version="1.1">
<metadata></metadata>
<defs>
<font id="madeon_runes_regularregular" horiz-adv-x="1199" >
<font-face units-per-em="2048" ascent="1638" descent="-410" />
<missing-glyph horiz-adv-x="508" />
<glyph unicode="&#xd;" horiz-adv-x="508" />
<glyph horiz-adv-x="0" />
<glyph horiz-adv-x="0" />
<glyph unicode=" "  horiz-adv-x="508" />
<glyph unicode="&#x09;" horiz-adv-x="508" />
<glyph unicode="&#xa0;" horiz-adv-x="508" />
<glyph unicode="0" d="M-1 710q0 38 27 65q27 26 65 26t65 -26q27 -27 27 -65t-27 -65t-65 -27t-65 27t-27 65zM59 710q0 -32 32 -32q31 0 31 32q0 31 -31 31q-32 0 -32 -31z" />
<glyph unicode="1" d="M0 716q0 30 21 51t51 21t51 -21t21 -51t-21 -51t-51 -21t-51 21t-21 51z" />
<glyph unicode="2" d="M0 72q0 30 21 51t51 21t51 -21t21 -51t-21 -51t-51 -21t-51 21t-21 51zM0 716q0 30 21 51t51 21t51 -21t21 -51t-21 -51t-51 -21t-51 21t-21 51z" />
<glyph unicode="3" d="M0 1361q0 30 21 51t51 21t51 -21t21 -51t-21 -51t-51 -21t-51 21t-21 51zM357 72q0 30 21 51t51 21t51 -21t21 -51t-21 -51t-51 -21t-51 21t-21 51zM714 716q0 30 21 51t51 21t51 -21t21 -51t-21 -51t-51 -21t-51 21t-21 51z" />
<glyph unicode="4" d="M0 72q0 30 21 51t51 21t51 -21t21 -51t-21 -51t-51 -21t-51 21t-21 51zM357 716q0 30 21 51t51 21t51 -21t21 -51t-21 -51t-51 -21t-51 21t-21 51zM357 1361q0 30 21 51t51 21t51 -21t21 -51t-21 -51t-51 -21t-51 21t-21 51zM714 72q0 30 21 51t51 21t51 -21t21 -51 t-21 -51t-51 -21t-51 21t-21 51z" />
<glyph unicode="5" d="M0 72q0 30 21 51t51 21t51 -21t21 -51t-21 -51t-51 -21t-51 21t-21 51zM0 1361q0 30 21 51t51 21t51 -21t21 -51t-21 -51t-51 -21t-51 21t-21 51zM357 716q0 30 21 51t51 21t51 -21t21 -51t-21 -51t-51 -21t-51 21t-21 51zM714 716q0 30 21 51t51 21t51 -21t21 -51 t-21 -51t-51 -21t-51 21t-21 51zM714 1361q0 30 21 51t51 21t51 -21t21 -51t-21 -51t-51 -21t-51 21t-21 51z" />
<glyph unicode="6" d="M0 1361q0 30 21 51t51 21t51 -21t21 -51t-21 -51t-51 -21t-51 21t-21 51zM357 72q0 30 21 51t51 21t51 -21t21 -51t-21 -51t-51 -21t-51 21t-21 51zM357 716q0 30 21 51t51 21t51 -21t21 -51t-21 -51t-51 -21t-51 21t-21 51zM357 1361q0 30 21 51t51 21t51 -21t21 -51 t-21 -51t-51 -21t-51 21t-21 51zM714 72q0 30 21 51t51 21t51 -21t21 -51t-21 -51t-51 -21t-51 21t-21 51zM714 1361q0 30 21 51t51 21t51 -21t21 -51t-21 -51t-51 -21t-51 21t-21 51z" />
<glyph unicode="7" d="M0 72q0 30 21 51t51 21t51 -21t21 -51t-21 -51t-51 -21t-51 21t-21 51zM0 716q0 30 21 51t51 21t51 -21t21 -51t-21 -51t-51 -21t-51 21t-21 51zM0 1361q0 30 21 51t51 21t51 -21t21 -51t-21 -51t-51 -21t-51 21t-21 51zM357 72q0 30 21 51t51 21t51 -21t21 -51t-21 -51 t-51 -21t-51 21t-21 51zM357 1361q0 30 21 51t51 21t51 -21t21 -51t-21 -51t-51 -21t-51 21t-21 51zM714 72q0 30 21 51t51 21t51 -21t21 -51t-21 -51t-51 -21t-51 21t-21 51zM714 1361q0 30 21 51t51 21t51 -21t21 -51t-21 -51t-51 -21t-51 21t-21 51z" />
<glyph unicode="8" d="M0 716q0 30 21 51t51 21t51 -21t21 -51t-21 -51t-51 -21t-51 21t-21 51zM0 1361q0 30 21 51t51 21t51 -21t21 -51t-21 -51t-51 -21t-51 21t-21 51zM357 72q0 30 21 51t51 21t51 -21t21 -51t-21 -51t-51 -21t-51 21t-21 51zM357 716q0 30 21 51t51 21t51 -21t21 -51 t-21 -51t-51 -21t-51 21t-21 51zM357 1361q0 30 21 51t51 21t51 -21t21 -51t-21 -51t-51 -21t-51 21t-21 51zM714 72q0 30 21 51t51 21t51 -21t21 -51t-21 -51t-51 -21t-51 21t-21 51zM714 716q0 30 21 51t51 21t51 -21t21 -51t-21 -51t-51 -21t-51 21t-21 51zM714 1361 q0 30 21 51t51 21t51 -21t21 -51t-21 -51t-51 -21t-51 21t-21 51z" />
<glyph unicode="9" d="M0 72q0 30 21 51t51 21t51 -21t21 -51t-21 -51t-51 -21t-51 21t-21 51zM0 716q0 30 21 51t51 21t51 -21t21 -51t-21 -51t-51 -21t-51 21t-21 51zM0 1361q0 30 21 51t51 21t51 -21t21 -51t-21 -51t-51 -21t-51 21t-21 51zM357 72q0 30 21 51t51 21t51 -21t21 -51t-21 -51 t-51 -21t-51 21t-21 51zM357 716q0 30 21 51t51 21t51 -21t21 -51t-21 -51t-51 -21t-51 21t-21 51zM357 1361q0 30 21 51t51 21t51 -21t21 -51t-21 -51t-51 -21t-51 21t-21 51zM714 72q0 30 21 51t51 21t51 -21t21 -51t-21 -51t-51 -21t-51 21t-21 51zM714 716q0 30 21 51 t51 21t51 -21t21 -51t-21 -51t-51 -21t-51 21t-21 51zM714 1361q0 30 21 51t51 21t51 -21t21 -51t-21 -51t-51 -21t-51 21t-21 51z" />
<glyph unicode="A" d="M0 0h882v64h-796l796 1333v37h-53l-829 -1389v-45z" />
<glyph unicode="B" d="M0 0h48l410 686h424v65h-386l386 645v38h-882v-1434zM64 153v533h319zM64 751v618h727l-370 -618h-357z" />
<glyph unicode="C" d="M0 1395l833 -1395h49v43l-792 1327h792v64h-882v-39z" />
<glyph unicode="D" d="M0 0h48l392 657l393 -657h49v43l-404 677l404 677v37h-882v-1434zM64 153v1134l339 -567zM90 1370h701l-351 -587z" />
<glyph unicode="E" d="M0 0h882v64h-882v-64zM0 687h882v64h-882v-64zM0 1370h882v64h-882v-64z" />
<glyph unicode="F" d="M0 686h422l410 -686h50v43l-385 643h385v65h-423l-408 683h-51v-40l384 -643h-384v-65z" />
<glyph unicode="G" d="M0 0h48l834 1397v37h-882v-1434zM64 153v1217h727z" />
<glyph unicode="H" d="M0 0h64v1434h-64v-1434zM409 0h64v1434h-64v-1434zM817 0h65v1434h-65v-1434z" />
<glyph unicode="I" d="M0 0h48l834 1396v38h-53l-829 -1389v-45z" />
<glyph unicode="J" d="M0 0h882v1434h-53l-829 -1389v-45zM86 64l732 1225v-1225h-732z" />
<glyph unicode="K" d="M0 0h48l392 657l392 -657h50v43l-385 643h385v65h-386l386 645v38h-53l-389 -652l-389 652h-51v-1434zM64 153v533h319zM64 751v535l320 -535h-320z" />
<glyph unicode="L" d="M0 0h882v43l-385 643h385v65h-423l-408 683h-51v-40l384 -643h-384v-65h422l372 -622h-794v-64z" />
<glyph unicode="M" d="M0 0h48l392 657l392 -657h50v1434h-53l-389 -652l-389 652h-51v-40l403 -674l-403 -675v-45zM478 720l339 569v-1138z" />
<glyph unicode="N" d="M0 0h48l392 657l392 -657h50v43l-404 677l404 676v38h-53l-389 -652l-389 652h-51v-1434zM64 153v1133l339 -566z" />
<glyph unicode="O" d="M0 0h882v43l-831 1391h-51v-40l794 -1330h-794v-64z" />
<glyph unicode="P" d="M0 0h882v43l-409 685v641h409v65h-882v-40l409 -684v-646h-409v-64zM90 1369h319v-534zM473 64v538l321 -538h-321z" />
<glyph unicode="Q" d="M0 0h48l361 604v-604h64v712l409 684v38h-882v-65h409v-639l-409 -685v-45zM473 837v532h318z" />
<glyph unicode="R" d="M0 0h48l392 658l392 -658h50v43l-385 644h385v64h-386l386 646v38h-882v-40l384 -644h-384v-64h383l-383 -642v-45zM90 1370h701l-351 -587z" />
<glyph unicode="S" d="M0 0h48l392 657l392 -657h50v43l-385 643h385v65h-386l386 645v38h-53l-389 -652l-389 652h-51v-40l384 -643h-384v-65h383l-383 -641v-45z" />
<glyph unicode="T" d="M0 686h409v-686h64v686h409v65h-409v683h-64v-683h-409v-65z" />
<glyph unicode="U" d="M0 0h48l834 1396v38h-53l-765 -1281v1281h-64v-1434z" />
<glyph unicode="V" d="M0 0h48l410 686h424v65h-386l386 645v38h-53l-408 -683h-357v683h-64v-1434zM64 153v533h319z" />
<glyph unicode="W" d="M0 686h422l410 -686h50v1434h-65v-683h-358l-408 683h-51v-40l384 -643h-384v-65zM497 686h320v-535z" />
<glyph unicode="X" d="M0 0h48l361 604v-604h64v602l360 -602h49v43l-384 643h384v65h-386l386 645v38h-53l-356 -597v597h-64v-599l-358 599h-51v-40l384 -643h-384v-65h383l-383 -641v-45z" />
<glyph unicode="Y" d="M0 0h882v43l-385 643h385v65h-386l386 645v38h-53l-389 -652l-389 652h-51v-40l384 -643h-384v-65h383l-383 -641v-45zM86 64l354 593l354 -593h-708z" />
<glyph unicode="Z" d="M0 0h882v64h-409v648l409 684v38h-53l-356 -597v597h-64v-704l-409 -685v-45zM86 64l323 540v-540h-323z" />
<glyph unicode="a" d="M0 0h882v64h-796l796 1333v37h-53l-829 -1389v-45z" />
<glyph unicode="b" d="M0 0h48l410 686h424v65h-386l386 645v38h-882v-1434zM64 153v533h319zM64 751v618h727l-370 -618h-357z" />
<glyph unicode="c" d="M0 1395l833 -1395h49v43l-792 1327h792v64h-882v-39z" />
<glyph unicode="d" d="M0 0h48l392 657l393 -657h49v43l-404 677l404 677v37h-882v-1434zM64 153v1134l339 -567zM90 1370h701l-351 -587z" />
<glyph unicode="e" d="M0 0h882v64h-882v-64zM0 687h882v64h-882v-64zM0 1370h882v64h-882v-64z" />
<glyph unicode="f" d="M0 686h422l410 -686h50v43l-385 643h385v65h-423l-408 683h-51v-40l384 -643h-384v-65z" />
<glyph unicode="g" d="M0 0h48l834 1397v37h-882v-1434zM64 153v1217h727z" />
<glyph unicode="h" d="M0 0h64v1434h-64v-1434zM409 0h64v1434h-64v-1434zM817 0h65v1434h-65v-1434z" />
<glyph unicode="i" d="M0 0h48l834 1396v38h-53l-829 -1389v-45z" />
<glyph unicode="j" d="M0 0h882v1434h-53l-829 -1389v-45zM86 64l732 1225v-1225h-732z" />
<glyph unicode="k" d="M0 0h48l392 657l392 -657h50v43l-385 643h385v65h-386l386 645v38h-53l-389 -652l-389 652h-51v-1434zM64 153v533h319zM64 751v535l320 -535h-320z" />
<glyph unicode="l" d="M0 0h882v43l-385 643h385v65h-423l-408 683h-51v-40l384 -643h-384v-65h422l372 -622h-794v-64z" />
<glyph unicode="m" d="M0 0h48l392 657l392 -657h50v1434h-53l-389 -652l-389 652h-51v-40l403 -674l-403 -675v-45zM478 720l339 569v-1138z" />
<glyph unicode="n" d="M0 0h48l392 657l392 -657h50v43l-404 677l404 676v38h-53l-389 -652l-389 652h-51v-1434zM64 153v1133l339 -566z" />
<glyph unicode="o" d="M0 0h882v43l-831 1391h-51v-40l794 -1330h-794v-64z" />
<glyph unicode="p" d="M0 0h882v43l-409 685v641h409v65h-882v-40l409 -684v-646h-409v-64zM90 1369h319v-534zM473 64v538l321 -538h-321z" />
<glyph unicode="q" d="M0 0h48l361 604v-604h64v712l409 684v38h-882v-65h409v-639l-409 -685v-45zM473 837v532h318z" />
<glyph unicode="r" d="M0 0h48l392 658l392 -658h50v43l-385 644h385v64h-386l386 646v38h-882v-40l384 -644h-384v-64h383l-383 -642v-45zM90 1370h701l-351 -587z" />
<glyph unicode="s" d="M0 0h48l392 657l392 -657h50v43l-385 643h385v65h-386l386 645v38h-53l-389 -652l-389 652h-51v-40l384 -643h-384v-65h383l-383 -641v-45z" />
<glyph unicode="t" d="M0 686h409v-686h64v686h409v65h-409v683h-64v-683h-409v-65z" />
<glyph unicode="u" d="M0 0h48l834 1396v38h-53l-765 -1281v1281h-64v-1434z" />
<glyph unicode="v" d="M0 0h48l410 686h424v65h-386l386 645v38h-53l-408 -683h-357v683h-64v-1434zM64 153v533h319z" />
<glyph unicode="w" d="M0 686h422l410 -686h50v1434h-65v-683h-358l-408 683h-51v-40l384 -643h-384v-65zM497 686h320v-535z" />
<glyph unicode="x" d="M0 0h48l361 604v-604h64v602l360 -602h49v43l-384 643h384v65h-386l386 645v38h-53l-356 -597v597h-64v-599l-358 599h-51v-40l384 -643h-384v-65h383l-383 -641v-45z" />
<glyph unicode="y" d="M0 0h882v43l-385 643h385v65h-386l386 645v38h-53l-389 -652l-389 652h-51v-40l384 -643h-384v-65h383l-383 -641v-45zM86 64l354 593l354 -593h-708z" />
<glyph unicode="z" d="M0 0h882v64h-409v648l409 684v38h-53l-356 -597v597h-64v-704l-409 -685v-45zM86 64l323 540v-540h-323z" />
<glyph unicode="&#x2000;" horiz-adv-x="717" />
<glyph unicode="&#x2001;" horiz-adv-x="1435" />
<glyph unicode="&#x2002;" horiz-adv-x="717" />
<glyph unicode="&#x2003;" horiz-adv-x="1435" />
<glyph unicode="&#x2004;" horiz-adv-x="478" />
<glyph unicode="&#x2005;" horiz-adv-x="358" />
<glyph unicode="&#x2006;" horiz-adv-x="239" />
<glyph unicode="&#x2007;" horiz-adv-x="239" />
<glyph unicode="&#x2008;" horiz-adv-x="179" />
<glyph unicode="&#x2009;" horiz-adv-x="287" />
<glyph unicode="&#x200a;" horiz-adv-x="79" />
<glyph unicode="&#x202f;" horiz-adv-x="287" />
<glyph unicode="&#x205f;" horiz-adv-x="358" />
<glyph unicode="&#x25fc;" horiz-adv-x="1435" d="M0 0v1435h1435v-1435h-1435z" />
</font>
</defs>
</svg>
